<?xml version="1.0" standalone="no"?>
<!DOCTYPE svg PUBLIC "-//W3C//DTD SVG 20010904//EN"
 "http://www.w3.org/TR/2001/REC-SVG-20010904/DTD/svg10.dtd">
<svg version="1.0" xmlns="http://www.w3.org/2000/svg"
 width="500.000000pt" height="200.000000pt" viewBox="0 0 500.000000 200.000000"
 preserveAspectRatio="xMidYMid meet">

<g transform="translate(0.000000,200.000000) scale(0.100000,-0.100000)"
fill="#000000" stroke="none">
<path d="M3087 1484 c-4 -4 -7 -76 -7 -161 l0 -153 65 0 65 0 0 55 c0 52 1 55
25 55 23 0 25 3 25 50 0 46 -2 50 -24 50 -23 0 -25 4 -28 53 l-3 52 -55 3
c-31 2 -59 0 -63 -4z"/>
<path d="M2140 1445 l0 -35 175 0 c107 0 175 -4 175 -10 0 -6 -69 -11 -172
-12 l-173 -3 -3 -32 -3 -33 175 0 c111 0 176 -4 176 -10 0 -6 27 -10 60 -10
l60 0 0 90 0 90 -235 0 -235 0 0 -35z"/>
<path d="M2720 1340 l0 -140 145 0 145 0 0 50 0 50 -79 0 c-44 0 -82 3 -84 8
-3 4 -2 22 0 40 l5 32 79 0 79 0 0 50 0 50 -145 0 -145 0 0 -140z"/>
<path d="M2130 1250 l0 -30 250 0 250 0 0 30 0 30 -250 0 -250 0 0 -30z"/>
<path d="M2147 1193 c-4 -3 -7 -19 -7 -35 l0 -28 175 0 c107 0 175 -4 175 -10
0 -6 -69 -11 -172 -12 l-173 -3 -3 -77 -3 -78 241 0 240 0 0 35 0 35 -175 0
c-110 0 -175 4 -175 10 0 6 63 10 170 10 l170 0 0 80 0 80 -228 0 c-126 0
-232 -3 -235 -7z"/>
<path d="M2902 1126 c-24 -41 -60 -61 -123 -71 l-45 -7 6 -46 5 -47 55 3 c36
2 76 13 116 32 l62 30 43 -24 c39 -22 174 -55 183 -45 2 2 6 25 10 50 l7 46
-55 11 c-68 14 -100 34 -116 72 -12 28 -16 30 -70 30 -55 0 -59 -2 -78 -34z"/>
</g>
</svg>
